<svg width="23" height="23" viewBox="0 0 23 23" fill="none" xmlns="http://www.w3.org/2000/svg">
<rect x="12" y="4" width="3" height="3" fill="#FBFEF9"/>
<rect x="8" y="4" width="3" height="3" fill="#FBFEF9"/>
<rect x="10" width="3" height="3" fill="#FBFEF9"/>
<rect x="20" y="10" width="3" height="3" fill="#FBFEF9"/>
<rect y="10" width="3" height="3" fill="#FBFEF9"/>
<rect x="2" y="18" width="3" height="3" fill="#FBFEF9"/>
<rect x="18" y="18" width="3" height="3" fill="#FBFEF9"/>
<rect x="18" y="3" width="3" height="3" fill="#FBFEF9"/>
<rect x="2" y="3" width="3" height="3" fill="#FBFEF9"/>
<rect x="10" y="20" width="3" height="3" fill="#FBFEF9"/>
<rect x="4" y="8" width="3" height="3" fill="#FBFEF9"/>
<rect x="4" y="12" width="3" height="3" fill="#FBFEF9"/>
<rect x="8" y="16" width="3" height="3" fill="#FBFEF9"/>
<rect x="12" y="16" width="3" height="3" fill="#FBFEF9"/>
<rect x="16" y="12" width="3" height="3" fill="#FBFEF9"/>
<rect x="16" y="8" width="3" height="3" fill="#FBFEF9"/>
</svg>
