<svg width="14" height="13" viewBox="0 0 14 13" fill="none" xmlns="http://www.w3.org/2000/svg">
<rect y="10" width="3" height="3" fill="#BF1363"/>
<rect x="4" y="2" width="3" height="3" fill="#BF1363"/>
<path d="M7 2L10 0V3L7 5V2Z" fill="#F49C49"/>
<path d="M11 6L14 4V7L11 9V6Z" fill="#F49C49"/>
<path d="M11 10L14 8V11L11 13V10Z" fill="#F49C49"/>
<path d="M7 10L10 8V11L7 13V10Z" fill="#F49C49"/>
<path d="M3 10L6 8V11L3 13V10Z" fill="#F49C49"/>
<path d="M7 0H10L7 2H4L7 0Z" fill="#F49C49"/>
<path d="M11 4H14L11 6H8L11 4Z" fill="#F49C49"/>
<path d="M11 8H14L11 10H8L11 8Z" fill="#F49C49"/>
<path d="M7 8H10L7 10H4L7 8Z" fill="#F49C49"/>
<path d="M3 8H6L3 10H0L3 8Z" fill="#F49C49"/>
<rect x="8" y="10" width="3" height="3" fill="#BF1363"/>
<rect x="4" y="10" width="3" height="3" fill="#BF1363"/>
<rect x="8" y="6" width="3" height="3" fill="#BF1363"/>
</svg>
