<svg width="14" height="13" viewBox="0 0 14 13" fill="none" xmlns="http://www.w3.org/2000/svg">
<rect y="2" width="3" height="3" fill="#D9534D"/>
<rect x="8" y="10" width="3" height="3" fill="#D9534D"/>
<rect x="4" y="10" width="3" height="3" fill="#D9534D"/>
<rect y="10" width="3" height="3" fill="#D9534D"/>
<rect x="8" y="6" width="3" height="3" fill="#D9534D"/>
<rect x="4" y="6" width="3" height="3" fill="#D9534D"/>
<rect y="6" width="3" height="3" fill="#D9534D"/>
<rect x="8" y="2" width="3" height="3" fill="#D9534D"/>
<path d="M11 2L14 0V3L11 5V2Z" fill="#F49C49"/>
<path d="M11 10L14 8V11L11 13V10Z" fill="#F49C49"/>
<path d="M11 6L14 4V7L11 9V6Z" fill="#F49C49"/>
<rect x="4" y="2" width="3" height="3" fill="#D9534D"/>
<path d="M3 0H6L3 2H0L3 0Z" fill="#F49C49"/>
<path d="M11 0H14L11 2H8L11 0Z" fill="#F49C49"/>
<path d="M7 0H10L7 2H4L7 0Z" fill="#F49C49"/>
</svg>
